<svg width="100" height="100" viewBox="0 0 100 100" fill="none" xmlns="http://www.w3.org/2000/svg">
<g clip-path="url(#clip0_605_2)">
<rect width="100" height="100" fill="#F89A2C"/>
<path d="M5.80832 68.7273L7.10378 61.0909L37.4447 61.0909L36.1492 68.7273H25.6492L21.1492 96H11.8083L16.3083 68.7273H5.80832ZM55.3487 72C55.451 70.875 55.1783 69.9943 54.5305 69.358C53.8828 68.7102 52.7919 68.3864 51.2578 68.3864C50.2805 68.3864 49.4624 68.5 48.8033 68.7273C48.1555 68.9545 47.6499 69.267 47.2862 69.6648C46.9339 70.0625 46.7124 70.5227 46.6214 71.0455C46.5192 71.4545 46.5249 71.8295 46.6385 72.1705C46.7635 72.5 46.9964 72.8011 47.3374 73.0739C47.6896 73.3466 48.1499 73.5909 48.718 73.8068C49.2976 74.0227 49.9851 74.2159 50.7805 74.3864L53.5078 75C55.3714 75.4091 56.9339 75.9489 58.1953 76.6193C59.468 77.2784 60.468 78.0625 61.1953 78.9716C61.9226 79.8807 62.3999 80.8977 62.6271 82.0227C62.8658 83.1477 62.8714 84.375 62.6442 85.7045C62.2578 88 61.3658 89.9432 59.968 91.5341C58.5703 93.125 56.7464 94.3352 54.4964 95.1648C52.2464 95.9943 49.6442 96.4091 46.6896 96.4091C43.6669 96.4091 41.0987 95.9602 38.9851 95.0625C36.8828 94.1534 35.3601 92.767 34.4169 90.9034C33.4851 89.0284 33.2578 86.6364 33.7351 83.7273H42.7351C42.5987 84.7955 42.7124 85.6932 43.076 86.4205C43.4396 87.1477 44.0249 87.6989 44.8317 88.0739C45.6385 88.4489 46.6442 88.6364 47.8487 88.6364C48.8714 88.6364 49.7464 88.5114 50.4737 88.2614C51.201 88.0114 51.7749 87.6648 52.1953 87.2216C52.6158 86.7784 52.8714 86.2727 52.9624 85.7045C53.0533 85.1818 52.9624 84.7159 52.6896 84.3068C52.4169 83.8977 51.9226 83.5284 51.2067 83.1989C50.4908 82.8693 49.5078 82.5682 48.2578 82.2955L44.9169 81.5455C41.951 80.8636 39.7124 79.7386 38.201 78.1705C36.6896 76.6023 36.1555 74.4545 36.5987 71.7273C36.9624 69.5 37.8771 67.5568 39.343 65.8977C40.8203 64.2273 42.6953 62.9318 44.968 62.0114C47.2521 61.0795 49.7805 60.6136 52.5533 60.6136C55.3714 60.6136 57.7294 61.0852 59.6271 62.0284C61.5362 62.9716 62.9055 64.2955 63.7351 66C64.576 67.7045 64.8033 69.7045 64.4169 72L55.3487 72ZM84.6775 72C84.7797 70.875 84.507 69.9943 83.8593 69.358C83.2116 68.7102 82.1207 68.3864 80.5866 68.3864C79.6093 68.3864 78.7911 68.5 78.132 68.7273C77.4843 68.9545 76.9786 69.267 76.615 69.6648C76.2627 70.0625 76.0411 70.5227 75.9502 71.0455C75.8479 71.4545 75.8536 71.8295 75.9672 72.1705C76.0922 72.5 76.3252 72.8011 76.6661 73.0739C77.0184 73.3466 77.4786 73.5909 78.0468 73.8068C78.6263 74.0227 79.3138 74.2159 80.1093 74.3864L82.8366 75C84.7002 75.4091 86.2627 75.9489 87.5241 76.6193C88.7968 77.2784 89.7968 78.0625 90.5241 78.9716C91.2513 79.8807 91.7286 80.8977 91.9559 82.0227C92.1945 83.1477 92.2002 84.375 91.9729 85.7045C91.5866 88 90.6945 89.9432 89.2968 91.5341C87.8991 93.125 86.0752 94.3352 83.8252 95.1648C81.5752 95.9943 78.9729 96.4091 76.0184 96.4091C72.9957 96.4091 70.4275 95.9602 68.3138 95.0625C66.2116 94.1534 64.6888 92.767 63.7457 90.9034C62.8138 89.0284 62.5866 86.6364 63.0638 83.7273L72.0638 83.7273C71.9275 84.7955 72.0411 85.6932 72.4047 86.4205C72.7684 87.1477 73.3536 87.6989 74.1604 88.0739C74.9672 88.4489 75.9729 88.6364 77.1775 88.6364C78.2002 88.6364 79.0752 88.5114 79.8025 88.2614C80.5297 88.0114 81.1036 87.6648 81.5241 87.2216C81.9445 86.7784 82.2002 86.2727 82.2911 85.7045C82.382 85.1818 82.2911 84.7159 82.0184 84.3068C81.7457 83.8977 81.2513 83.5284 80.5354 83.1989C79.8195 82.8693 78.8366 82.5682 77.5866 82.2955L74.2457 81.5455C71.2797 80.8636 69.0411 79.7386 67.5297 78.1705C66.0184 76.6023 65.4843 74.4545 65.9275 71.7273C66.2911 69.5 67.2059 67.5568 68.6718 65.8977C70.1491 64.2273 72.0241 62.9318 74.2968 62.0114C76.5809 61.0795 79.1093 60.6136 81.882 60.6136C84.7002 60.6136 87.0582 61.0852 88.9559 62.0284C90.865 62.9716 92.2343 64.2955 93.0638 66C93.9047 67.7045 94.132 69.7045 93.7457 72H84.6775Z" fill="white"/>
</g>
<defs>
<clipPath id="clip0_605_2">
<rect width="100" height="100" fill="white"/>
</clipPath>
</defs>
</svg>
